<mxfile host="app.diagrams.net" agent="Mozilla/5.0 (Windows NT 10.0; Win64; x64) AppleWebKit/537.36 (KHTML, like Gecko) Chrome/130.0.0.0 Safari/537.36" version="24.8.4">
  <diagram id="C5RBs43oDa-KdzZeNtuy" name="Page-1">
    <mxGraphModel dx="1594" dy="1810" grid="1" gridSize="10" guides="1" tooltips="1" connect="1" arrows="1" fold="1" page="1" pageScale="1" pageWidth="1169" pageHeight="827" math="0" shadow="0">
      <root>
        <mxCell id="WIyWlLk6GJQsqaUBKTNV-0" />
        <mxCell id="WIyWlLk6GJQsqaUBKTNV-1" parent="WIyWlLk6GJQsqaUBKTNV-0" />
        <mxCell id="ZD2my65vZ_bzbJDaCCm7-39" style="edgeStyle=orthogonalEdgeStyle;rounded=0;orthogonalLoop=1;jettySize=auto;html=1;exitX=0.5;exitY=1;exitDx=0;exitDy=0;entryX=0.5;entryY=0;entryDx=0;entryDy=0;endArrow=none;endFill=0;" edge="1" parent="WIyWlLk6GJQsqaUBKTNV-1" target="ZD2my65vZ_bzbJDaCCm7-3">
          <mxGeometry relative="1" as="geometry">
            <mxPoint x="1160" y="130" as="sourcePoint" />
          </mxGeometry>
        </mxCell>
        <mxCell id="ZD2my65vZ_bzbJDaCCm7-79" style="edgeStyle=orthogonalEdgeStyle;shape=connector;rounded=0;orthogonalLoop=1;jettySize=auto;html=1;exitX=0.5;exitY=0;exitDx=0;exitDy=0;entryX=0.5;entryY=1;entryDx=0;entryDy=0;strokeColor=default;align=center;verticalAlign=middle;fontFamily=Helvetica;fontSize=11;fontColor=default;labelBackgroundColor=default;endArrow=none;endFill=0;" edge="1" parent="WIyWlLk6GJQsqaUBKTNV-1" source="ZD2my65vZ_bzbJDaCCm7-2" target="ZD2my65vZ_bzbJDaCCm7-78">
          <mxGeometry relative="1" as="geometry" />
        </mxCell>
        <mxCell id="ZD2my65vZ_bzbJDaCCm7-2" value="Lote" style="rounded=0;whiteSpace=wrap;html=1;fillColor=#f5f5f5;fontColor=#333333;strokeColor=#666666;" vertex="1" parent="WIyWlLk6GJQsqaUBKTNV-1">
          <mxGeometry x="1640" y="-100" width="120" height="40" as="geometry" />
        </mxCell>
        <mxCell id="ZD2my65vZ_bzbJDaCCm7-3" value="Mascota" style="rounded=0;whiteSpace=wrap;html=1;fillColor=#f5f5f5;fontColor=#333333;strokeColor=#666666;" vertex="1" parent="WIyWlLk6GJQsqaUBKTNV-1">
          <mxGeometry x="1100" y="180" width="120" height="40" as="geometry" />
        </mxCell>
        <mxCell id="ZD2my65vZ_bzbJDaCCm7-40" style="edgeStyle=orthogonalEdgeStyle;rounded=0;orthogonalLoop=1;jettySize=auto;html=1;exitX=0.5;exitY=1;exitDx=0;exitDy=0;entryX=0.5;entryY=0;entryDx=0;entryDy=0;endArrow=none;endFill=0;" edge="1" parent="WIyWlLk6GJQsqaUBKTNV-1" source="ZD2my65vZ_bzbJDaCCm7-4">
          <mxGeometry relative="1" as="geometry">
            <mxPoint x="1160" y="60" as="targetPoint" />
          </mxGeometry>
        </mxCell>
        <mxCell id="ZD2my65vZ_bzbJDaCCm7-43" style="edgeStyle=orthogonalEdgeStyle;rounded=0;orthogonalLoop=1;jettySize=auto;html=1;exitX=1;exitY=0.5;exitDx=0;exitDy=0;entryX=0.5;entryY=1;entryDx=0;entryDy=0;endArrow=none;endFill=0;" edge="1" parent="WIyWlLk6GJQsqaUBKTNV-1" source="ZD2my65vZ_bzbJDaCCm7-4" target="ZD2my65vZ_bzbJDaCCm7-62">
          <mxGeometry relative="1" as="geometry">
            <mxPoint x="1279.9999999999864" y="-100" as="targetPoint" />
          </mxGeometry>
        </mxCell>
        <mxCell id="ZD2my65vZ_bzbJDaCCm7-4" value="Propietario" style="rounded=0;whiteSpace=wrap;html=1;fillColor=#f5f5f5;fontColor=#333333;strokeColor=#666666;" vertex="1" parent="WIyWlLk6GJQsqaUBKTNV-1">
          <mxGeometry x="1100" y="-20" width="120" height="40" as="geometry" />
        </mxCell>
        <mxCell id="ZD2my65vZ_bzbJDaCCm7-93" style="edgeStyle=orthogonalEdgeStyle;shape=connector;rounded=0;orthogonalLoop=1;jettySize=auto;html=1;exitX=1;exitY=0.5;exitDx=0;exitDy=0;entryX=0;entryY=0.5;entryDx=0;entryDy=0;strokeColor=default;align=center;verticalAlign=middle;fontFamily=Helvetica;fontSize=11;fontColor=default;labelBackgroundColor=default;endArrow=none;endFill=0;" edge="1" parent="WIyWlLk6GJQsqaUBKTNV-1" source="ZD2my65vZ_bzbJDaCCm7-7" target="ZD2my65vZ_bzbJDaCCm7-73">
          <mxGeometry relative="1" as="geometry" />
        </mxCell>
        <mxCell id="ZD2my65vZ_bzbJDaCCm7-7" value="Producto" style="rounded=0;whiteSpace=wrap;html=1;fillColor=#f5f5f5;fontColor=#333333;strokeColor=#666666;" vertex="1" parent="WIyWlLk6GJQsqaUBKTNV-1">
          <mxGeometry x="1360" y="-100" width="120" height="40" as="geometry" />
        </mxCell>
        <mxCell id="ZD2my65vZ_bzbJDaCCm7-90" style="edgeStyle=orthogonalEdgeStyle;shape=connector;rounded=0;orthogonalLoop=1;jettySize=auto;html=1;exitX=0;exitY=0.5;exitDx=0;exitDy=0;entryX=1;entryY=0.5;entryDx=0;entryDy=0;strokeColor=default;align=center;verticalAlign=middle;fontFamily=Helvetica;fontSize=11;fontColor=default;labelBackgroundColor=default;endArrow=none;endFill=0;" edge="1" parent="WIyWlLk6GJQsqaUBKTNV-1" source="ZD2my65vZ_bzbJDaCCm7-8" target="ZD2my65vZ_bzbJDaCCm7-51">
          <mxGeometry relative="1" as="geometry" />
        </mxCell>
        <mxCell id="ZD2my65vZ_bzbJDaCCm7-94" style="edgeStyle=orthogonalEdgeStyle;shape=connector;rounded=0;orthogonalLoop=1;jettySize=auto;html=1;exitX=0.5;exitY=1;exitDx=0;exitDy=0;entryX=0.5;entryY=0;entryDx=0;entryDy=0;strokeColor=default;align=center;verticalAlign=middle;fontFamily=Helvetica;fontSize=11;fontColor=default;labelBackgroundColor=default;endArrow=none;endFill=0;" edge="1" parent="WIyWlLk6GJQsqaUBKTNV-1" source="ZD2my65vZ_bzbJDaCCm7-8" target="ZD2my65vZ_bzbJDaCCm7-92">
          <mxGeometry relative="1" as="geometry" />
        </mxCell>
        <mxCell id="ZD2my65vZ_bzbJDaCCm7-8" value="Detalle de Compra" style="rounded=0;whiteSpace=wrap;html=1;fillColor=#f5f5f5;fontColor=#333333;strokeColor=#666666;" vertex="1" parent="WIyWlLk6GJQsqaUBKTNV-1">
          <mxGeometry x="1360" y="-300" width="120" height="40" as="geometry" />
        </mxCell>
        <mxCell id="ZD2my65vZ_bzbJDaCCm7-84" style="edgeStyle=orthogonalEdgeStyle;shape=connector;rounded=0;orthogonalLoop=1;jettySize=auto;html=1;exitX=0.5;exitY=1;exitDx=0;exitDy=0;entryX=0.5;entryY=0;entryDx=0;entryDy=0;strokeColor=default;align=center;verticalAlign=middle;fontFamily=Helvetica;fontSize=11;fontColor=default;labelBackgroundColor=default;endArrow=none;endFill=0;" edge="1" parent="WIyWlLk6GJQsqaUBKTNV-1" source="ZD2my65vZ_bzbJDaCCm7-9" target="ZD2my65vZ_bzbJDaCCm7-62">
          <mxGeometry relative="1" as="geometry" />
        </mxCell>
        <mxCell id="ZD2my65vZ_bzbJDaCCm7-9" value="Compra" style="rounded=0;whiteSpace=wrap;html=1;fillColor=#f5f5f5;fontColor=#333333;strokeColor=#666666;" vertex="1" parent="WIyWlLk6GJQsqaUBKTNV-1">
          <mxGeometry x="1220" y="-200" width="120" height="40" as="geometry" />
        </mxCell>
        <mxCell id="ZD2my65vZ_bzbJDaCCm7-41" value="1" style="text;html=1;align=center;verticalAlign=middle;resizable=0;points=[];autosize=1;strokeColor=none;fillColor=none;rounded=0;" vertex="1" parent="WIyWlLk6GJQsqaUBKTNV-1">
          <mxGeometry x="1165" y="18" width="30" height="30" as="geometry" />
        </mxCell>
        <mxCell id="ZD2my65vZ_bzbJDaCCm7-42" value="N" style="text;html=1;align=center;verticalAlign=middle;resizable=0;points=[];autosize=1;strokeColor=none;fillColor=none;rounded=0;" vertex="1" parent="WIyWlLk6GJQsqaUBKTNV-1">
          <mxGeometry x="1165" y="138" width="30" height="30" as="geometry" />
        </mxCell>
        <mxCell id="ZD2my65vZ_bzbJDaCCm7-45" value="Posee" style="rhombus;whiteSpace=wrap;html=1;shadow=0;fontFamily=Helvetica;fontSize=12;align=center;strokeWidth=1;spacing=6;spacingTop=-4;fillColor=#dae8fc;strokeColor=#6c8ebf;rounded=0;" vertex="1" parent="WIyWlLk6GJQsqaUBKTNV-1">
          <mxGeometry x="1120" y="58" width="80" height="80" as="geometry" />
        </mxCell>
        <mxCell id="ZD2my65vZ_bzbJDaCCm7-46" value="N" style="text;html=1;align=center;verticalAlign=middle;resizable=0;points=[];autosize=1;strokeColor=none;fillColor=none;" vertex="1" parent="WIyWlLk6GJQsqaUBKTNV-1">
          <mxGeometry x="1420" y="-260" width="30" height="30" as="geometry" />
        </mxCell>
        <mxCell id="ZD2my65vZ_bzbJDaCCm7-48" value="N" style="text;html=1;align=center;verticalAlign=middle;resizable=0;points=[];autosize=1;strokeColor=none;fillColor=none;" vertex="1" parent="WIyWlLk6GJQsqaUBKTNV-1">
          <mxGeometry x="1250" y="-160" width="30" height="30" as="geometry" />
        </mxCell>
        <mxCell id="ZD2my65vZ_bzbJDaCCm7-89" style="edgeStyle=orthogonalEdgeStyle;shape=connector;rounded=0;orthogonalLoop=1;jettySize=auto;html=1;exitX=0.5;exitY=1;exitDx=0;exitDy=0;entryX=0.5;entryY=0;entryDx=0;entryDy=0;strokeColor=default;align=center;verticalAlign=middle;fontFamily=Helvetica;fontSize=11;fontColor=default;labelBackgroundColor=default;endArrow=none;endFill=0;" edge="1" parent="WIyWlLk6GJQsqaUBKTNV-1" source="ZD2my65vZ_bzbJDaCCm7-51" target="ZD2my65vZ_bzbJDaCCm7-9">
          <mxGeometry relative="1" as="geometry" />
        </mxCell>
        <mxCell id="ZD2my65vZ_bzbJDaCCm7-51" value="Genera" style="rhombus;whiteSpace=wrap;html=1;shadow=0;fontFamily=Helvetica;fontSize=12;align=center;strokeWidth=1;spacing=6;spacingTop=-4;fillColor=#dae8fc;strokeColor=#6c8ebf;rounded=0;" vertex="1" parent="WIyWlLk6GJQsqaUBKTNV-1">
          <mxGeometry x="1240" y="-320" width="80" height="80" as="geometry" />
        </mxCell>
        <mxCell id="ZD2my65vZ_bzbJDaCCm7-56" value="N" style="text;html=1;align=center;verticalAlign=middle;resizable=0;points=[];autosize=1;strokeColor=none;fillColor=none;" vertex="1" parent="WIyWlLk6GJQsqaUBKTNV-1">
          <mxGeometry x="1330" y="-310" width="30" height="30" as="geometry" />
        </mxCell>
        <mxCell id="ZD2my65vZ_bzbJDaCCm7-58" value="1" style="text;html=1;align=center;verticalAlign=middle;resizable=0;points=[];autosize=1;strokeColor=none;fillColor=none;" vertex="1" parent="WIyWlLk6GJQsqaUBKTNV-1">
          <mxGeometry x="1220" y="-30" width="30" height="30" as="geometry" />
        </mxCell>
        <mxCell id="ZD2my65vZ_bzbJDaCCm7-62" value="Realiza" style="rhombus;whiteSpace=wrap;html=1;shadow=0;fontFamily=Helvetica;fontSize=12;align=center;strokeWidth=1;spacing=6;spacingTop=-4;fillColor=#dae8fc;strokeColor=#6c8ebf;rounded=0;" vertex="1" parent="WIyWlLk6GJQsqaUBKTNV-1">
          <mxGeometry x="1240" y="-120" width="80" height="80" as="geometry" />
        </mxCell>
        <mxCell id="ZD2my65vZ_bzbJDaCCm7-75" style="edgeStyle=orthogonalEdgeStyle;rounded=0;orthogonalLoop=1;jettySize=auto;html=1;exitX=1;exitY=0.5;exitDx=0;exitDy=0;endArrow=none;endFill=0;" edge="1" parent="WIyWlLk6GJQsqaUBKTNV-1" source="ZD2my65vZ_bzbJDaCCm7-73" target="ZD2my65vZ_bzbJDaCCm7-2">
          <mxGeometry relative="1" as="geometry" />
        </mxCell>
        <mxCell id="ZD2my65vZ_bzbJDaCCm7-73" value="Pertenece a" style="rhombus;whiteSpace=wrap;html=1;shadow=0;fontFamily=Helvetica;fontSize=12;align=center;strokeWidth=1;spacing=6;spacingTop=-4;fillColor=#dae8fc;strokeColor=#6c8ebf;rounded=0;" vertex="1" parent="WIyWlLk6GJQsqaUBKTNV-1">
          <mxGeometry x="1520" y="-120" width="80" height="80" as="geometry" />
        </mxCell>
        <mxCell id="ZD2my65vZ_bzbJDaCCm7-76" value="N" style="text;html=1;align=center;verticalAlign=middle;resizable=0;points=[];autosize=1;strokeColor=none;fillColor=none;fontFamily=Helvetica;fontSize=11;fontColor=default;labelBackgroundColor=default;" vertex="1" parent="WIyWlLk6GJQsqaUBKTNV-1">
          <mxGeometry x="1610" y="-110" width="30" height="30" as="geometry" />
        </mxCell>
        <mxCell id="ZD2my65vZ_bzbJDaCCm7-77" value="1" style="text;html=1;align=center;verticalAlign=middle;resizable=0;points=[];autosize=1;strokeColor=none;fillColor=none;fontFamily=Helvetica;fontSize=11;fontColor=default;labelBackgroundColor=default;" vertex="1" parent="WIyWlLk6GJQsqaUBKTNV-1">
          <mxGeometry x="1480" y="-110" width="30" height="30" as="geometry" />
        </mxCell>
        <mxCell id="ZD2my65vZ_bzbJDaCCm7-81" style="edgeStyle=orthogonalEdgeStyle;shape=connector;rounded=0;orthogonalLoop=1;jettySize=auto;html=1;strokeColor=default;align=center;verticalAlign=middle;fontFamily=Helvetica;fontSize=11;fontColor=default;labelBackgroundColor=default;endArrow=none;endFill=0;" edge="1" parent="WIyWlLk6GJQsqaUBKTNV-1" source="ZD2my65vZ_bzbJDaCCm7-78" target="ZD2my65vZ_bzbJDaCCm7-80">
          <mxGeometry relative="1" as="geometry" />
        </mxCell>
        <mxCell id="ZD2my65vZ_bzbJDaCCm7-78" value="Hace&amp;nbsp;&lt;div&gt;parte de&lt;/div&gt;" style="rhombus;whiteSpace=wrap;html=1;shadow=0;fontFamily=Helvetica;fontSize=12;align=center;strokeWidth=1;spacing=6;spacingTop=-4;fillColor=#dae8fc;strokeColor=#6c8ebf;rounded=0;" vertex="1" parent="WIyWlLk6GJQsqaUBKTNV-1">
          <mxGeometry x="1660" y="-220" width="80" height="80" as="geometry" />
        </mxCell>
        <mxCell id="ZD2my65vZ_bzbJDaCCm7-80" value="Pedido" style="rounded=0;whiteSpace=wrap;html=1;fillColor=#f5f5f5;fontColor=#333333;strokeColor=#666666;" vertex="1" parent="WIyWlLk6GJQsqaUBKTNV-1">
          <mxGeometry x="1640" y="-300" width="120" height="40" as="geometry" />
        </mxCell>
        <mxCell id="ZD2my65vZ_bzbJDaCCm7-82" value="1" style="text;html=1;align=center;verticalAlign=middle;resizable=0;points=[];autosize=1;strokeColor=none;fillColor=none;fontFamily=Helvetica;fontSize=11;fontColor=default;labelBackgroundColor=default;" vertex="1" parent="WIyWlLk6GJQsqaUBKTNV-1">
          <mxGeometry x="1700" y="-260" width="30" height="30" as="geometry" />
        </mxCell>
        <mxCell id="ZD2my65vZ_bzbJDaCCm7-83" value="N" style="text;html=1;align=center;verticalAlign=middle;resizable=0;points=[];autosize=1;strokeColor=none;fillColor=none;fontFamily=Helvetica;fontSize=11;fontColor=default;labelBackgroundColor=default;" vertex="1" parent="WIyWlLk6GJQsqaUBKTNV-1">
          <mxGeometry x="1700" y="-130" width="30" height="30" as="geometry" />
        </mxCell>
        <mxCell id="ZD2my65vZ_bzbJDaCCm7-85" value="Proveedor" style="rounded=0;whiteSpace=wrap;html=1;fillColor=#f5f5f5;fontColor=#333333;strokeColor=#666666;" vertex="1" parent="WIyWlLk6GJQsqaUBKTNV-1">
          <mxGeometry x="1499" y="-400" width="120" height="40" as="geometry" />
        </mxCell>
        <mxCell id="ZD2my65vZ_bzbJDaCCm7-88" style="edgeStyle=orthogonalEdgeStyle;shape=connector;rounded=0;orthogonalLoop=1;jettySize=auto;html=1;exitX=0.5;exitY=1;exitDx=0;exitDy=0;entryX=0.5;entryY=0;entryDx=0;entryDy=0;strokeColor=default;align=center;verticalAlign=middle;fontFamily=Helvetica;fontSize=11;fontColor=default;labelBackgroundColor=default;endArrow=none;endFill=0;" edge="1" parent="WIyWlLk6GJQsqaUBKTNV-1" source="ZD2my65vZ_bzbJDaCCm7-86" target="ZD2my65vZ_bzbJDaCCm7-80">
          <mxGeometry relative="1" as="geometry" />
        </mxCell>
        <mxCell id="ZD2my65vZ_bzbJDaCCm7-97" style="edgeStyle=orthogonalEdgeStyle;shape=connector;rounded=0;orthogonalLoop=1;jettySize=auto;html=1;exitX=0;exitY=0.5;exitDx=0;exitDy=0;entryX=1;entryY=0.5;entryDx=0;entryDy=0;strokeColor=default;align=center;verticalAlign=middle;fontFamily=Helvetica;fontSize=11;fontColor=default;labelBackgroundColor=default;endArrow=none;endFill=0;" edge="1" parent="WIyWlLk6GJQsqaUBKTNV-1" source="ZD2my65vZ_bzbJDaCCm7-86" target="ZD2my65vZ_bzbJDaCCm7-85">
          <mxGeometry relative="1" as="geometry" />
        </mxCell>
        <mxCell id="ZD2my65vZ_bzbJDaCCm7-86" value="&lt;div&gt;&lt;br&gt;&lt;/div&gt;Proveeido&lt;div&gt;por&lt;/div&gt;" style="rhombus;whiteSpace=wrap;html=1;shadow=0;fontFamily=Helvetica;fontSize=12;align=center;strokeWidth=1;spacing=6;spacingTop=-4;fillColor=#dae8fc;strokeColor=#6c8ebf;rounded=0;" vertex="1" parent="WIyWlLk6GJQsqaUBKTNV-1">
          <mxGeometry x="1660" y="-420" width="80" height="80" as="geometry" />
        </mxCell>
        <mxCell id="ZD2my65vZ_bzbJDaCCm7-91" value="1" style="text;html=1;align=center;verticalAlign=middle;resizable=0;points=[];autosize=1;strokeColor=none;fillColor=none;fontFamily=Helvetica;fontSize=11;fontColor=default;labelBackgroundColor=default;" vertex="1" parent="WIyWlLk6GJQsqaUBKTNV-1">
          <mxGeometry x="1280" y="-230" width="30" height="30" as="geometry" />
        </mxCell>
        <mxCell id="ZD2my65vZ_bzbJDaCCm7-95" style="edgeStyle=orthogonalEdgeStyle;shape=connector;rounded=0;orthogonalLoop=1;jettySize=auto;html=1;exitX=0.5;exitY=1;exitDx=0;exitDy=0;entryX=0.5;entryY=0;entryDx=0;entryDy=0;strokeColor=default;align=center;verticalAlign=middle;fontFamily=Helvetica;fontSize=11;fontColor=default;labelBackgroundColor=default;endArrow=none;endFill=0;" edge="1" parent="WIyWlLk6GJQsqaUBKTNV-1" source="ZD2my65vZ_bzbJDaCCm7-92" target="ZD2my65vZ_bzbJDaCCm7-7">
          <mxGeometry relative="1" as="geometry" />
        </mxCell>
        <mxCell id="ZD2my65vZ_bzbJDaCCm7-92" value="Incluye" style="rhombus;whiteSpace=wrap;html=1;shadow=0;fontFamily=Helvetica;fontSize=12;align=center;strokeWidth=1;spacing=6;spacingTop=-4;fillColor=#dae8fc;strokeColor=#6c8ebf;rounded=0;" vertex="1" parent="WIyWlLk6GJQsqaUBKTNV-1">
          <mxGeometry x="1380" y="-220" width="80" height="80" as="geometry" />
        </mxCell>
        <mxCell id="ZD2my65vZ_bzbJDaCCm7-96" value="1" style="text;html=1;align=center;verticalAlign=middle;resizable=0;points=[];autosize=1;strokeColor=none;fillColor=none;fontFamily=Helvetica;fontSize=11;fontColor=default;labelBackgroundColor=default;" vertex="1" parent="WIyWlLk6GJQsqaUBKTNV-1">
          <mxGeometry x="1420" y="-130" width="30" height="30" as="geometry" />
        </mxCell>
        <mxCell id="ZD2my65vZ_bzbJDaCCm7-98" value="1" style="text;html=1;align=center;verticalAlign=middle;resizable=0;points=[];autosize=1;strokeColor=none;fillColor=none;fontFamily=Helvetica;fontSize=11;fontColor=default;labelBackgroundColor=default;" vertex="1" parent="WIyWlLk6GJQsqaUBKTNV-1">
          <mxGeometry x="1619" y="-380" width="30" height="30" as="geometry" />
        </mxCell>
        <mxCell id="ZD2my65vZ_bzbJDaCCm7-99" value="N" style="text;html=1;align=center;verticalAlign=middle;resizable=0;points=[];autosize=1;strokeColor=none;fillColor=none;fontFamily=Helvetica;fontSize=11;fontColor=default;labelBackgroundColor=default;" vertex="1" parent="WIyWlLk6GJQsqaUBKTNV-1">
          <mxGeometry x="1700" y="-330" width="30" height="30" as="geometry" />
        </mxCell>
      </root>
    </mxGraphModel>
  </diagram>
</mxfile>
